<?xml version="1.0" encoding="UTF-8"?>
<svg id="Icons" xmlns="http://www.w3.org/2000/svg" viewBox="0 0 64 64">
  <path id="Comments" d="m32,15c-11.05,0-20,7.61-20,17,0,3.84,1.59,7.53,4.04,10.2,1.16,1.26-.74,5.16-1.54,6.67-.43.82.31,1.66,1.21,1.46,2.29-.51,5.17-2.89,6.45-2.89,1.79,0,5.13,1.56,9.85,1.56,11.05,0,20-7.61,20-17s-8.95-17-20-17Zm-7,19.5c-1.38,0-2.5-1.12-2.5-2.5s1.12-2.5,2.5-2.5,2.5,1.12,2.5,2.5-1.12,2.5-2.5,2.5Zm7,0c-1.38,0-2.5-1.12-2.5-2.5s1.12-2.5,2.5-2.5,2.5,1.12,2.5,2.5-1.12,2.5-2.5,2.5Zm7,0c-1.38,0-2.5-1.12-2.5-2.5s1.12-2.5,2.5-2.5,2.5,1.12,2.5,2.5-1.12,2.5-2.5,2.5Z"/>
</svg>