<?xml version="1.0" encoding="UTF-8"?>
<svg id="Icons" xmlns="http://www.w3.org/2000/svg" viewBox="0 0 64 64">
  <g id="Home">
    <path d="M51.15,30.9l-16.85-11.8c-1.38-.96-3.21-.96-4.59,0L12.85,30.9c-.53,.37-.85,.99-.85,1.64v20.96c0,1.1,.9,2,2,2h9c1.1,0,2-.9,2-2v-10c0-1.1,.9-2,2-2h10c1.1,0,2,.9,2,2v10c0,1.1,.9,2,2,2h9c1.1,0,2-.9,2-2v-20.96c0-.65-.32-1.26-.85-1.64Z"/>
    <path d="M57.72,24.84l-7.72-5.4V10.5c0-1.1-.9-2-2-2h-4c-1.1,0-2,.9-2,2v3.34l-3.69-2.58c-3.77-2.64-8.84-2.64-12.62,0L6.28,24.84c-1.36,.95-1.69,2.82-.74,4.18,.95,1.36,2.82,1.69,4.18,.74l19.41-13.59c1.72-1.2,4.02-1.2,5.74,0l19.41,13.59c.52,.37,1.12,.54,1.72,.54,.95,0,1.88-.45,2.46-1.28,.95-1.36,.62-3.23-.74-4.18Z"/>
  </g>
</svg>