<?xml version="1.0" encoding="UTF-8"?>
<svg id="Icons" xmlns="http://www.w3.org/2000/svg" viewBox="0 0 64 64">
  <g id="List_Add" data-name="List Add">
    <path d="M47,21h-2.52c-1.92,0-3.48-1.56-3.48-3.52,0-.17,.03-.32,.05-.48h-12.55c-1.66,0-3,1.34-3,3s1.34,3,3,3h18.5v-2Z"/>
    <rect x="25.5" y="29" width="25" height="6" rx="3" ry="3"/>
    <rect x="25.5" y="41" width="25" height="6" rx="3" ry="3"/>
    <g id="plus">
      <path d="M56.52,16h-4.52v-4.52c0-.82-.66-1.48-1.48-1.48h-.03c-.82,0-1.48,.66-1.48,1.48v4.52h-4.52c-.82,0-1.48,.66-1.48,1.48v.03c0,.82,.66,1.48,1.48,1.48h4.52v4.52c0,.82,.66,1.48,1.48,1.48h.03c.82,0,1.48-.66,1.48-1.48v-4.52h4.52c.82,0,1.48-.66,1.48-1.48v-.03c0-.82-.66-1.48-1.48-1.48Z"/>
    </g>
    <g id="dots">
      <circle cx="16.5" cy="32" r="3"/>
      <circle cx="16.5" cy="20" r="3"/>
      <circle cx="16.5" cy="44" r="3"/>
    </g>
  </g>
</svg>