<?xml version="1.0" encoding="UTF-8"?>
<svg id="Icons" xmlns="http://www.w3.org/2000/svg" viewBox="0 0 64 64">
  <g id="Message">
    <path d="m33.82,32.12l15.59-11.91c.3-.23.14-.72-.24-.72H14.83c-.38,0-.55.49-.24.72l15.59,11.91c1.08.82,2.57.82,3.64,0Z"/>
    <path d="m35.88,33.45c-.15-.11-.35-.1-.49.01-1.29,1.01-2.38,1.28-3.38,1.28s-2.12-.27-3.38-1.27c-.14-.11-.35-.13-.49-.01l-13.53,10.33c-.3.23-.14.72.24.72h34.34c.38,0,.55-.49.24-.72l-13.54-10.34Z"/>
    <path d="m51.36,21.25l-13.66,10.43c-.21.16-.21.48,0,.64l13.66,10.43c.26.2.64.01.64-.32v-20.87c0-.33-.38-.52-.64-.32Z"/>
    <path d="m12,21.57v20.87c0,.33.38.52.64.32l13.66-10.43c.21-.16.21-.48,0-.64l-13.66-10.43c-.26-.2-.64-.01-.64.32Z"/>
  </g>
</svg>