<?xml version="1.0" encoding="UTF-8"?>
<svg id="Icons" xmlns="http://www.w3.org/2000/svg" viewBox="0 0 64 64">
  <g id="Photo">
    <circle cx="49.5" cy="22.5" r="6.5"/>
    <path d="M56,8H8C3.58,8,0,11.58,0,16V48C0,52.42,3.58,56,8,56H56c4.42,0,8-3.58,8-8V16c0-4.42-3.58-8-8-8ZM4,16c0-2.21,1.79-4,4-4H56c2.21,0,4,1.79,4,4V48c0,2.21-1.79,4-4,4h-5.75c-.33,0-.63-.16-.82-.43l-7.78-11.2c-.8-1.15-2.49-1.15-3.29,0l-3.64,5.24c-.4,.58-1.26,.57-1.65-.02l-11.4-17.1c-.79-1.19-2.54-1.19-3.33,0L5.81,45.63c-.57,.78-1.81,.38-1.81-.59V16Z"/>
  </g>
</svg>