<?xml version="1.0" encoding="UTF-8"?>
<svg id="Icons" xmlns="http://www.w3.org/2000/svg" viewBox="0 0 64 64">
  <g id="Repost">
    <path d="m28.94,22.5h14.58c1.37,0,2.49,1.11,2.49,2.49v14.04l-3.19-3.19c-.39-.39-1.02-.39-1.41,0l-3.01,3.01c-.39.39-.39,1.02,0,1.41l9.9,9.9c.39.39,1.02.39,1.41,0l9.9-9.9c.39-.39.39-1.02,0-1.41l-3.01-3.01c-.39-.39-1.02-.39-1.41,0l-3.19,3.19v-14.04c0-4.69-3.8-8.49-8.49-8.49h-18.58c-.89,0-1.34,1.08-.71,1.71l4,4c.19.19.44.29.71.29Z"/>
    <path d="m34.98,41.5h-14.49c-1.37,0-2.49-1.11-2.49-2.49v-14.31l3.36,3.36c.39.39,1.02.39,1.41,0l2.83-2.83c.39-.39.39-1.02,0-1.41l-9.9-9.9c-.39-.39-1.02-.39-1.41,0l-9.9,9.9c-.39.39-.39,1.02,0,1.41l2.83,2.83c.39.39,1.02.39,1.41,0l3.36-3.36v14.31c0,4.69,3.8,8.49,8.49,8.49h18.49c.89,0,1.34-1.08.71-1.71l-4-4c-.19-.19-.44-.29-.71-.29Z"/>
  </g>
</svg>