<?xml version="1.0" encoding="UTF-8"?>
<svg id="Icons" xmlns="http://www.w3.org/2000/svg" viewBox="0 0 64 64">
  <g id="Users">
    <circle cx="22.3" cy="23" r="12"/>
    <path d="m12.3,35.7c.64-.37,1.44-.39,2.06,0,2.3,1.45,5.02,2.29,7.93,2.29s5.63-.85,7.93-2.29c.63-.39,1.42-.38,2.06,0,5.38,3.11,9.18,8.65,9.89,15.13.13,1.17-.82,2.17-1.99,2.17-6.91,0-28.88,0-35.79,0-1.17,0-2.11-1.01-1.99-2.17.7-6.48,4.5-12.01,9.89-15.13Z"/>
    <path d="m37.3,23c0-2.48-.62-4.82-1.69-6.88-.24-.46-.09-1.01.35-1.29,1.9-1.19,4.14-1.87,6.56-1.83,6.29.11,11.56,5.27,11.78,11.55.25,6.83-5.22,12.45-11.99,12.45-3.19,0-6.07-1.25-8.22-3.28-.39-.36-.42-.95-.09-1.37,2.06-2.57,3.31-5.82,3.31-9.36Z"/>
    <path d="m50.23,37.71c.66-.41,1.42-.38,2.06,0,4.73,2.74,8.24,7.35,9.49,12.83.29,1.26-.66,2.47-1.95,2.47h-12.62c-1.05,0-1.9-.81-1.99-1.85-.28-3.43-1.33-6.7-3.05-9.66-.38-.65.06-1.46.81-1.49,1.72-.09,4.46-.54,7.25-2.29Z"/>
  </g>
</svg>