<?xml version="1.0" encoding="UTF-8"?>
<svg id="Icons" xmlns="http://www.w3.org/2000/svg" viewBox="0 0 64 64">
  <defs>
    <style>
      .cls-1 {
        fill: #fff;
      }
    </style>
  </defs>
  <g id="User_Block" data-name="User Block">
    <circle cx="32" cy="23" r="12"/>
    <path d="m49.33,43.04c-1.76-3.06-4.28-5.57-7.34-7.34-.64-.37-1.43-.38-2.06.01-2.3,1.45-5.02,2.29-7.93,2.29s-5.63-.85-7.93-2.29c-.63-.39-1.42-.38-2.07,0-5.38,3.12-9.19,8.66-9.89,15.13-.13,1.16.82,2.17,1.99,2.17h26.3s.5-.5.5-.5l-2.61-2.61c-1.44-1.44-1.67-4-.32-5.53.86-.98,2.11-1.48,3.42-1.34.95.1,1.82.59,2.49,1.26l2.62,2.62,2.66-2.66c.32-.32.39-.81.17-1.2Z"/>
    <g>
      <path d="m52.04,61c-.79,0-1.53-.31-2.09-.87l-3.45-3.45-3.45,3.45c-.56.56-1.3.87-2.09.87s-1.53-.31-2.09-.87c-.56-.56-.87-1.3-.87-2.09s.31-1.53.87-2.09l3.45-3.45-3.45-3.45c-.56-.56-.87-1.3-.87-2.09s.31-1.53.87-2.09c.56-.56,1.3-.87,2.09-.87s1.53.31,2.09.87l3.45,3.45,3.45-3.45c.56-.56,1.3-.87,2.09-.87s1.53.31,2.09.87c.56.56.87,1.3.87,2.09s-.31,1.53-.87,2.09l-3.45,3.45,3.45,3.45c.56.56.87,1.3.87,2.09s-.31,1.53-.87,2.09c-.56.56-1.3.87-2.09.87Z"/>
      <path class="cls-1" d="m52.04,45c.5,0,1,.19,1.39.57.77.77.77,2.01,0,2.77l-4.16,4.16,4.16,4.16c.77.77.77,2.01,0,2.77-.38.38-.88.57-1.39.57s-1-.19-1.39-.57l-4.16-4.16-4.16,4.16c-.38.38-.88.57-1.39.57s-1-.19-1.39-.57c-.77-.77-.77-2.01,0-2.77l4.16-4.16-4.16-4.16c-.77-.77-.77-2.01,0-2.77.38-.38.88-.57,1.39-.57s1,.19,1.39.57l4.16,4.16,4.16-4.16c.38-.38.88-.57,1.39-.57m0-2c-1.06,0-2.05.41-2.8,1.16l-2.74,2.74-2.74-2.74c-.75-.75-1.74-1.16-2.8-1.16s-2.05.41-2.8,1.16c-1.54,1.54-1.54,4.06,0,5.6l2.74,2.74-2.74,2.74c-1.54,1.54-1.54,4.06,0,5.6.75.75,1.74,1.16,2.8,1.16s2.05-.41,2.8-1.16l2.74-2.74,2.74,2.74c.75.75,1.74,1.16,2.8,1.16s2.05-.41,2.8-1.16c1.54-1.54,1.54-4.06,0-5.6l-2.74-2.74,2.74-2.74c1.54-1.54,1.54-4.06,0-5.6-.75-.75-1.74-1.16-2.8-1.16h0Z"/>
    </g>
  </g>
</svg>