<?xml version="1.0" encoding="UTF-8"?>
<svg id="Icons" xmlns="http://www.w3.org/2000/svg" viewBox="0 0 64 64">
  <path id="Verified" d="M56.25,18c-2.63-4.55-3.7-11.08-8.25-13.72-4.41-2.55-10.54-.28-16-.28s-11.59-2.27-16,.28c-4.55,2.63-5.62,9.16-8.25,13.72C5.19,22.41,0,26.53,0,32s5.19,9.59,7.75,14c2.63,4.55,3.7,11.08,8.25,13.72,4.41,2.55,10.54,.28,16,.28s11.59,2.27,16-.28c4.55-2.63,5.62-9.16,8.25-13.72,2.55-4.41,7.75-8.54,7.75-14s-5.19-9.59-7.75-14Zm-9.2,9.24l-14.04,14.04-2.56,2.56c-1.39,1.39-3.64,1.39-5.03,0l-2.56-2.56-5.92-5.92c-1.4-1.4-1.4-3.67,0-5.07,1.4-1.4,3.67-1.4,5.07,0l5.92,5.92,14.04-14.04c1.4-1.4,3.67-1.4,5.07,0,1.4,1.4,1.4,3.67,0,5.07Z"/>
</svg>