<svg xmlns="http://www.w3.org/2000/svg" viewBox="0 0 470.45 282"><defs><style>.a,.b,.c{opacity:0.2;}.b,.e{fill:#fff;}.d{opacity:0.3;}</style></defs><rect class="a" x="318.29" y="46" width="152.16" height="195.44" rx="12"/><path class="b" d="M367.62,86.28H325.87A1.76,1.76,0,0,0,324.11,88v40.72a1.76,1.76,0,0,0,1.76,1.76h41.75a1.76,1.76,0,0,0,1.76-1.76V88A1.76,1.76,0,0,0,367.62,86.28Zm-17.34,22.48-3.53,1.61-4,1.85a.88.88,0,0,1-1.25-.8v-6.93a.88.88,0,0,1,1.25-.8l4,1.85,3.53,1.62A.88.88,0,0,1,350.28,108.76Z"/><path class="b" d="M415.51,86.28H373.75A1.76,1.76,0,0,0,372,88v40.72a1.76,1.76,0,0,0,1.76,1.76h41.76a1.76,1.76,0,0,0,1.75-1.76V88A1.76,1.76,0,0,0,415.51,86.28Z"/><path class="b" d="M367.62,132.9H325.87a1.76,1.76,0,0,0-1.76,1.76v40.72a1.76,1.76,0,0,0,1.76,1.76h41.75a1.76,1.76,0,0,0,1.76-1.76V134.66A1.76,1.76,0,0,0,367.62,132.9Z"/><path class="b" d="M463.29,86.28H421.53A1.76,1.76,0,0,0,419.78,88v40.72a1.76,1.76,0,0,0,1.75,1.76h41.76a1.76,1.76,0,0,0,1.76-1.76V88A1.76,1.76,0,0,0,463.29,86.28Z"/><path class="b" d="M415.51,132.9H373.75a1.76,1.76,0,0,0-1.76,1.76v40.72a1.76,1.76,0,0,0,1.76,1.76h41.76a1.76,1.76,0,0,0,1.75-1.76V134.66A1.76,1.76,0,0,0,415.51,132.9Z"/><path class="b" d="M463.29,132.9H421.53a1.76,1.76,0,0,0-1.75,1.76v40.72a1.76,1.76,0,0,0,1.75,1.76h41.76a1.76,1.76,0,0,0,1.76-1.76V134.66A1.76,1.76,0,0,0,463.29,132.9Z"/><path class="b" d="M367.7,179.15H326a1.76,1.76,0,0,0-1.76,1.75v40.73a1.76,1.76,0,0,0,1.76,1.75H367.7a1.76,1.76,0,0,0,1.76-1.75V180.9A1.76,1.76,0,0,0,367.7,179.15Z"/><path class="b" d="M415.58,179.15H373.83a1.76,1.76,0,0,0-1.76,1.75v40.73a1.76,1.76,0,0,0,1.76,1.75h41.75a1.76,1.76,0,0,0,1.76-1.75V180.9A1.76,1.76,0,0,0,415.58,179.15Z"/><path class="b" d="M463.37,179.15H421.61a1.76,1.76,0,0,0-1.75,1.75v40.73a1.76,1.76,0,0,0,1.75,1.75h41.76a1.77,1.77,0,0,0,1.76-1.75V180.9A1.77,1.77,0,0,0,463.37,179.15Z"/><circle class="b" cx="337.65" cy="65.04" r="8.02"/><rect class="b" x="350.4" y="61.6" width="38.27" height="6.88" rx="3"/><rect class="a" y="44.12" width="150.3" height="193.05" rx="12"/><circle class="b" cx="19.13" cy="65.05" r="7.93"/><rect class="b" x="31.02" y="57.13" width="44.72" height="6.79" rx="3"/><path class="b" d="M87.21,67.17H33.43a2.27,2.27,0,0,0-2.27,2.27v71.9a2.27,2.27,0,0,0,2.27,2.26H87.21a2.27,2.27,0,0,0,2.26-2.26V69.44A2.27,2.27,0,0,0,87.21,67.17ZM64.86,106.42l-4.54,2.08-5.19,2.38a1.14,1.14,0,0,1-1.61-1v-8.93a1.14,1.14,0,0,1,1.61-1l5.19,2.38,4.54,2.09A1.13,1.13,0,0,1,64.86,106.42Z"/><circle class="b" cx="19.13" cy="167.32" r="7.93"/><rect class="b" x="31.02" y="159.39" width="26.44" height="6.79" rx="3"/><path class="b" d="M89.47,237.17V171.71a2.27,2.27,0,0,0-2.26-2.27H33.43a2.27,2.27,0,0,0-2.27,2.27v65.46m33.7-28.49-4.54,2.09-5.19,2.38a1.14,1.14,0,0,1-1.61-1v-8.93a1.14,1.14,0,0,1,1.61-1l5.19,2.38,4.54,2.08A1.13,1.13,0,0,1,64.86,208.68Z"/><rect class="b" x="38.86" y="149.01" width="41.33" height="3.4" rx="1.7"/><g class="c"><g class="d"><path class="e" d="M34.81,148.58a1.29,1.29,0,0,0-1.13.63,1.26,1.26,0,0,0-1.12-.63,1.23,1.23,0,0,0-1.27,1.13c0,1,2.39,3.13,2.39,3.13s2.4-2.1,2.4-3.13A1.23,1.23,0,0,0,34.81,148.58Z"/></g></g><rect class="a" x="124.98" width="219.56" height="282" rx="12"/><circle class="b" cx="151.85" cy="213.77" r="11.58"/><rect class="b" x="169.22" y="217.08" width="93.45" height="4.96" rx="2.48"/><rect class="b" x="169.22" y="227.01" width="60.37" height="4.96" rx="2.48"/><rect class="b" x="169.22" y="202.2" width="65.33" height="9.92" rx="3"/><rect class="b" x="165.9" y="252.85" width="163.69" height="14.89" rx="7.44"/><circle class="b" cx="146.69" cy="260.29" r="9.96"/><circle class="b" cx="151.85" cy="31.01" r="11.58"/><rect class="b" x="169.22" y="19.43" width="65.33" height="9.92" rx="3"/><rect class="b" x="169.22" y="156.71" width="31.43" height="9.92" rx="3"/><circle class="b" cx="151.85" cy="168.29" r="11.58"/><path class="b" d="M179.59,171.73a9.93,9.93,0,1,0,9.93,9.92A9.92,9.92,0,0,0,179.59,171.73Zm2.87,6a1,1,0,0,1,.09-.41,1,1,0,0,1,.23-.35,1.18,1.18,0,0,1,.35-.23.94.94,0,0,1,.41-.08,1,1,0,0,1,.42.08,1.18,1.18,0,0,1,.35.23,1.36,1.36,0,0,1,.23.34,1.25,1.25,0,0,1,.08.42v2.87a1.18,1.18,0,0,1-.08.43,1.36,1.36,0,0,1-.23.34,1.41,1.41,0,0,1-.35.23,1.16,1.16,0,0,1-.42.08,1.11,1.11,0,0,1-.41-.08,1.21,1.21,0,0,1-.35-.24,1,1,0,0,1-.23-.34,1,1,0,0,1-.09-.42Zm-7.89,0a1,1,0,0,1,.08-.42,1.08,1.08,0,0,1,.57-.57,1,1,0,0,1,.43-.08,1,1,0,0,1,.42.08,1.13,1.13,0,0,1,.34.23,1.38,1.38,0,0,1,.22.35,1,1,0,0,1,.09.41v2.87a1,1,0,0,1-.09.42,1.33,1.33,0,0,1-.22.34,1.16,1.16,0,0,1-.34.24,1.25,1.25,0,0,1-.42.08,1.18,1.18,0,0,1-.43-.08,1.36,1.36,0,0,1-.34-.23,1.13,1.13,0,0,1-.23-.34,1,1,0,0,1-.08-.43Zm10.67,7.18a5.18,5.18,0,0,1-.35,1.16,6,6,0,0,1-1.24,1.83,5.85,5.85,0,0,1-1.82,1.23,5.66,5.66,0,0,1-4.47,0,5.73,5.73,0,0,1-1.82-1.23,5.84,5.84,0,0,1-1.6-3,.93.93,0,0,1,.93-1.07h9.45A.92.92,0,0,1,185.24,184.88Z"/><path class="b" d="M251.3,34.11H172.74a3.32,3.32,0,0,0-3.31,3.31v105a3.32,3.32,0,0,0,3.31,3.31H251.3a3.32,3.32,0,0,0,3.31-3.31v-105A3.32,3.32,0,0,0,251.3,34.11ZM218.66,91.44l-6.64,3L204.44,98a1.66,1.66,0,0,1-2.35-1.51v-13a1.66,1.66,0,0,1,2.35-1.5L212,85.39l6.64,3A1.65,1.65,0,0,1,218.66,91.44Z"/></svg>