<?xml version="1.0" encoding="UTF-8"?><svg id="a" xmlns="http://www.w3.org/2000/svg" viewBox="0 0 165 50"><defs><style>.c{fill:#fff;}</style></defs><g id="b"><path class="c" d="M36,0h10L17,50,0,0H10l9.8,26.9L36,0Z"/><path class="c" d="M74.2,30.5l-24.7,6.8c.4,.4,.9,.8,1.5,1.2,1.9,1.1,4.3,1.3,6.6,.7s4.4-2.1,5.8-4.1l7.5,4.3c-2.8,4.1-7,7.1-11.8,8.4-1.7,.5-3.5,.7-5.2,.7-3,0-5.9-.6-8.3-2.1-6.4-4.1-7-9.4-7.3-10.4-1.1-4.4,.3-9.2,3.2-13.3,2.8-4.1,7-7.1,11.8-8.4,4.8-1.3,9.6-.8,13.5,1.4,2.5,1.4,4.4,3.4,5.7,5.9,.8,1.4,1.3,2.9,1.6,4.6,.4,2.5,.1,4.2,.1,4.3Zm-11.3-5.9c-.4-.4-1-.8-1.5-1.2-1.2-.7-2.6-1-4.1-1-.8,0-1.7,.1-2.5,.3-2.3,.6-4.4,2.1-5.8,4.1-.4,.6-.7,1.2-1,1.9l14.9-4.1Z"/><path class="c" d="M96.4,13.5c1.2,0,2.3,.2,3.4,.4,.4,.1,.6,.4,.6,.8l-1.2,8.3c0,.1-.1,.2-.1,.3-.2,.2-.4,.2-.6,.1-.9-.6-2.1-.9-3.3-.9-3.5,0-6.8,3-7.2,6.4l-2.4,18.6h-9.2l2.4-18.7,1.7-13.4h9.2l-.3,2c1.7-2.3,4.7-3.9,7-3.9Z"/><path class="c" d="M116.8,25c3.9,.8,11.2,2.4,11.2,10.2,0,3-1.3,5.9-3.6,8.3-2.7,2.9-6.7,4.7-10.9,5-.5,0-1,.1-1.4,.1-7.2,0-12.7-4.5-12.7-10.7l9.3-1.1c0,1.6,2.3,3.1,5.2,2.9,1.6-.1,3.2-.8,4.1-1.7,.5-.5,.7-1.1,.7-1.6,0-1.2-1.1-1.7-5-2.6-1.4-.3-2.7-.6-3.9-1.1-5.7-2.5-7.6-8-4.6-13.4,2.6-4.7,8.7-7.2,14.5-6,3.4,.7,8.2,3.8,7.6,9.5l-9.2,.2c0-.3-.8-.9-1.4-1-1.7-.4-3.3,.3-3.5,.7-.2,.4-.5,1,1.2,1.7,.7,.3,1.5,.4,2.4,.6h0Z"/><path class="c" d="M164.9,27.4l-2.5,19.9h-9.2l.6-4.5c-2.1,3.6-5.8,5.5-10,5.5-7.9,0-13-4.8-12.2-11.4,1-7.5,7.4-10.8,16.7-10.8,2.4,0,5.1,.9,6.9,1.8,.5-3.5-1.7-6.4-6.1-6.4-2.3,0-4.4,.3-7.7,2.7l-6.8-4c4-5.7,10.9-7.7,16-7.7h.9c8.4,0,14.4,6.7,13.4,14.9Zm-11.1,7.4c-1.4-.7-3.9-1.3-6.5-1.3-1.4,0-2.8,.2-4,.6-2.1,.7-2.5,1.8-2.6,2.8-.3,2.4,3.7,2.5,4.1,2.5,2.5,0,6.8-1.1,9-4.6Z"/></g></svg>