<?xml version="1.0" encoding="UTF-8"?>
<svg id="Icons" xmlns="http://www.w3.org/2000/svg" viewBox="0 0 64 64">
  <g id="Turntable">
    <path d="M54.4,8H9.6C4.3,8,0,12.3,0,17.6v28.8c0,5.3,4.3,9.6,9.6,9.6H54.4c5.3,0,9.6-4.3,9.6-9.6V17.6c0-5.3-4.3-9.6-9.6-9.6ZM24.8,47.2c-8.39,0-15.2-6.81-15.2-15.2s6.81-15.2,15.2-15.2,15.2,6.81,15.2,15.2-6.81,15.2-15.2,15.2Zm29.6-10.84c0,1.4-.52,2.75-1.47,3.78l-5.84,6.37c-.47,.52-1.12,.78-1.77,.78-.58,0-1.16-.21-1.62-.63-.98-.9-1.04-2.41-.15-3.39l5.84-6.37c.14-.15,.21-.34,.21-.54v-14.76c0-1.32,1.07-2.4,2.4-2.4s2.4,1.08,2.4,2.4v14.76Z"/>
    <circle cx="24.8" cy="32" r="4"/>
  </g>
</svg>