<?xml version="1.0" encoding="UTF-8"?>
<svg id="Icons" xmlns="http://www.w3.org/2000/svg" viewBox="0 0 64 64">
  <path id="Verified" d="M56.25,18c-2.63-4.55-3.7-11.08-8.25-13.72-4.41-2.55-10.54-.28-16-.28s-11.59-2.27-16,.28c-4.55,2.63-5.62,9.16-8.25,13.72C5.19,22.41,0,26.53,0,32s5.19,9.59,7.75,14c2.63,4.55,3.7,11.08,8.25,13.72,4.41,2.55,10.54,.28,16,.28s11.59,2.27,16-.28c4.55-2.63,5.62-9.16,8.25-13.72,2.55-4.41,7.75-8.54,7.75-14s-5.19-9.59-7.75-14Zm-8.96,10.65l-15.26,15.26c-.87,.87-2.05,1.36-3.28,1.36s-2.41-.49-3.28-1.36l-8.78-8.78c-1.81-1.81-1.81-4.75,0-6.56,1.81-1.81,4.75-1.81,6.55,0l5.5,5.5,11.98-11.98c1.81-1.81,4.74-1.81,6.55,0,1.81,1.81,1.81,4.75,0,6.56Z"/>
</svg>