<?xml version="1.0" encoding="UTF-8"?>
<svg id="Icons" xmlns="http://www.w3.org/2000/svg" viewBox="0 0 64 64">
  <path d="M34,43.5s-.02,0-.03,0c-.71-.02-1.31-.52-1.44-1.22l-2.64-13.86-2.42,10.9c-.14,.65-.69,1.12-1.36,1.17-.67,.04-1.27-.34-1.51-.96l-2.74-7.2-2.5,5.31c-.25,.54-.8,.87-1.4,.86-.6-.02-1.13-.39-1.35-.94l-1.62-4.06h-1.48c-.83,0-1.5-.67-1.5-1.5s.67-1.5,1.5-1.5h2.5c.61,0,1.17,.37,1.39,.94l.72,1.8,2.53-5.38c.26-.54,.82-.88,1.41-.86,.6,.02,1.13,.4,1.35,.96l2.22,5.83,2.91-13.12c.15-.69,.78-1.17,1.49-1.17,.71,.01,1.32,.52,1.45,1.22l2.68,14.08,2.39-10.14c.15-.64,.7-1.11,1.36-1.15,.66-.05,1.27,.35,1.5,.96l2.87,7.53,2.43-4.24c.27-.47,.76-.76,1.3-.76s1.04,.29,1.3,.76l1.57,2.74h1.63c.83,0,1.5,.67,1.5,1.5s-.67,1.5-1.5,1.5h-2.5c-.54,0-1.04-.29-1.3-.76l-.7-1.22-2.7,4.72c-.29,.5-.85,.79-1.42,.75-.58-.04-1.08-.42-1.29-.96l-2.26-5.93-2.88,12.24c-.16,.68-.77,1.16-1.46,1.16Z"/>
</svg>