<?xml version="1.0" encoding="utf-8"?>
<!-- Generator: Adobe Illustrator 24.3.0, SVG Export Plug-In . SVG Version: 6.00 Build 0)  -->
<svg version="1.1" id="Logo_400" xmlns="http://www.w3.org/2000/svg" xmlns:xlink="http://www.w3.org/1999/xlink" x="0px" y="0px"
	 viewBox="0 0 165 50" style="enable-background:new 0 0 165 50;" xml:space="preserve">
<path d="M36,0H46L17,50L0,0l0.1,0H10l9.8,26.9L36,0z"/>
<path d="M74.2,30.5l-24.7,6.8c0.4,0.4,0.9,0.8,1.5,1.2c1.9,1.1,4.3,1.3,6.6,0.7c2.3-0.6,4.4-2.1,5.8-4.1l7.5,4.3
	c-2.8,4.1-7,7.1-11.8,8.4c-1.7,0.5-3.5,0.7-5.2,0.7c-3,0-5.9-0.6-8.3-2.1c-6.4-4.1-7-9.4-7.3-10.4c-1.1-4.4,0.3-9.2,3.2-13.3
	c2.8-4.1,7-7.1,11.8-8.4c4.8-1.3,9.6-0.8,13.5,1.4c2.5,1.4,4.4,3.4,5.7,5.9c0.8,1.4,1.3,2.9,1.6,4.6C74.5,28.7,74.2,30.4,74.2,30.5z
	 M62.9,24.6c-0.4-0.4-1-0.8-1.5-1.2c-1.2-0.7-2.6-1-4.1-1c-0.8,0-1.7,0.1-2.5,0.3c-2.3,0.6-4.4,2.1-5.8,4.1c-0.4,0.6-0.7,1.2-1,1.9
	L62.9,24.6z"/>
<path d="M96.4,13.5c1.2,0,2.3,0.2,3.4,0.4c0.4,0.1,0.6,0.4,0.6,0.8L99.2,23c0,0.1-0.1,0.2-0.1,0.3c-0.2,0.2-0.4,0.2-0.6,0.1
	c-0.9-0.6-2.1-0.9-3.3-0.9c-3.5,0-6.8,3-7.2,6.4l-2.4,18.6h-9.2l2.4-18.7l1.7-13.4h9.2l-0.3,2C91.1,15.1,94.1,13.5,96.4,13.5z"/>
<path d="M116.8,25c3.9,0.8,11.2,2.4,11.2,10.2c0,3-1.3,5.9-3.6,8.3c-2.7,2.9-6.7,4.7-10.9,5c-0.5,0-1,0.1-1.4,0.1
	c-7.2,0-12.7-4.5-12.7-10.7l9.3-1.1c0,1.6,2.3,3.1,5.2,2.9c1.6-0.1,3.2-0.8,4.1-1.7c0.5-0.5,0.7-1.1,0.7-1.6c0-1.2-1.1-1.7-5-2.6
	c-1.4-0.3-2.7-0.6-3.9-1.1c-5.7-2.5-7.6-8-4.6-13.4c2.6-4.7,8.7-7.2,14.5-6c3.4,0.7,8.2,3.8,7.6,9.5l-9.2,0.2c0-0.3-0.8-0.9-1.4-1
	c-1.7-0.4-3.3,0.3-3.5,0.7c-0.2,0.4-0.5,1,1.2,1.7C115.1,24.7,115.9,24.8,116.8,25L116.8,25z"/>
<path d="M164.9,27.4l-2.5,19.9h-9.2l0.6-4.5c-2.1,3.6-5.8,5.5-10,5.5c-7.9,0-13-4.8-12.2-11.4c1-7.5,7.4-10.8,16.7-10.8
	c2.4,0,5.1,0.9,6.9,1.8c0.5-3.5-1.7-6.4-6.1-6.4c-2.3,0-4.4,0.3-7.7,2.7l-6.8-4c4-5.7,10.9-7.7,16-7.7h0.9
	C159.9,12.5,165.9,19.2,164.9,27.4z M153.8,34.8c-1.4-0.7-3.9-1.3-6.5-1.3c-1.4,0-2.8,0.2-4,0.6c-2.1,0.7-2.5,1.8-2.6,2.8
	c-0.3,2.4,3.7,2.5,4.1,2.5C147.3,39.4,151.6,38.3,153.8,34.8z"/>
</svg>
